<?xml version="1.0" encoding="UTF-8"?>
<svg xmlns="http://www.w3.org/2000/svg" viewBox="0.00 0.00 300.00 350.00">
  <line id="1" x1="150.00" y1="175.00" x2="249.00" y2="175.00"
        stroke="rgba(255,6,6,1.00)" stroke-width="0.97" />
  <line id="2" x1="249.00" y1="175.00" x2="199.50" y2="89.26"
        stroke="rgba(255,6,6,1.00)" stroke-width="0.97" />
  <line id="3" x1="199.50" y1="89.26" x2="150.00" y2="175.00"
        stroke="rgba(255,6,6,1.00)" stroke-width="0.97" />
  <line id="4" x1="150.00" y1="175.00" x2="159.85" y2="173.26"
        stroke="rgba(255,6,6,1.00)" stroke-width="0.97" />
  <line id="5" x1="159.85" y1="173.26" x2="255.37" y2="156.42"
        stroke="rgba(255,13,13,1.00)" stroke-width="0.94" />
  <line id="6" x1="255.37" y1="156.42" x2="193.02" y2="82.11"
        stroke="rgba(255,13,13,1.00)" stroke-width="0.94" />
  <line id="7" x1="193.02" y1="82.11" x2="159.85" y2="173.26"
        stroke="rgba(255,13,13,1.00)" stroke-width="0.94" />
  <line id="8" x1="159.85" y1="173.26" x2="169.25" y2="169.84"
        stroke="rgba(255,13,13,1.00)" stroke-width="0.94" />
  <line id="9" x1="169.25" y1="169.84" x2="258.52" y2="137.35"
        stroke="rgba(255,20,20,1.00)" stroke-width="0.92" />
  <line id="10" x1="258.52" y1="137.35" x2="185.74" y2="76.29"
        stroke="rgba(255,20,20,1.00)" stroke-width="0.92" />
  <line id="11" x1="185.74" y1="76.29" x2="169.25" y2="169.84"
        stroke="rgba(255,20,20,1.00)" stroke-width="0.92" />
  <line id="12" x1="169.25" y1="169.84" x2="177.91" y2="164.84"
        stroke="rgba(255,20,20,1.00)" stroke-width="0.92" />
  <line id="13" x1="177.91" y1="164.84" x2="258.45" y2="118.34"
        stroke="rgba(255,27,27,1.00)" stroke-width="0.89" />
  <line id="14" x1="258.45" y1="118.34" x2="177.91" y2="71.84"
        stroke="rgba(255,27,27,1.00)" stroke-width="0.89" />
  <line id="15" x1="177.91" y1="71.84" x2="177.91" y2="164.84"
        stroke="rgba(255,27,27,1.00)" stroke-width="0.89" />
  <line id="16" x1="177.91" y1="164.84" x2="185.57" y2="158.42"
        stroke="rgba(255,27,27,1.00)" stroke-width="0.89" />
  <line id="17" x1="185.57" y1="158.42" x2="255.28" y2="99.92"
        stroke="rgba(255,34,34,1.00)" stroke-width="0.86" />
  <line id="18" x1="255.28" y1="99.92" x2="169.76" y2="68.80"
        stroke="rgba(255,34,34,1.00)" stroke-width="0.86" />
  <line id="19" x1="169.76" y1="68.80" x2="185.57" y2="158.42"
        stroke="rgba(255,34,34,1.00)" stroke-width="0.86" />
  <line id="20" x1="185.57" y1="158.42" x2="191.99" y2="150.75"
        stroke="rgba(255,34,34,1.00)" stroke-width="0.86" />
  <line id="21" x1="191.99" y1="150.75" x2="249.20" y2="82.58"
        stroke="rgba(255,41,41,1.00)" stroke-width="0.83" />
  <line id="22" x1="249.20" y1="82.58" x2="161.55" y2="67.12"
        stroke="rgba(255,41,41,1.00)" stroke-width="0.83" />
  <line id="23" x1="161.55" y1="67.12" x2="191.99" y2="150.75"
        stroke="rgba(255,41,41,1.00)" stroke-width="0.83" />
  <line id="24" x1="191.99" y1="150.75" x2="196.99" y2="142.09"
        stroke="rgba(255,41,41,1.00)" stroke-width="0.83" />
  <line id="25" x1="196.99" y1="142.09" x2="240.49" y2="66.75"
        stroke="rgba(255,48,48,1.00)" stroke-width="0.81" />
  <line id="26" x1="240.49" y1="66.75" x2="153.49" y2="66.75"
        stroke="rgba(255,48,48,1.00)" stroke-width="0.81" />
  <line id="27" x1="153.49" y1="66.75" x2="196.99" y2="142.09"
        stroke="rgba(255,48,48,1.00)" stroke-width="0.81" />
  <line id="28" x1="196.99" y1="142.09" x2="200.41" y2="132.70"
        stroke="rgba(255,48,48,1.00)" stroke-width="0.81" />
  <line id="29" x1="200.41" y1="132.70" x2="229.49" y2="52.82"
        stroke="rgba(255,55,55,1.00)" stroke-width="0.78" />
  <line id="30" x1="229.49" y1="52.82" x2="145.78" y2="67.58"
        stroke="rgba(255,55,55,1.00)" stroke-width="0.78" />
  <line id="31" x1="145.78" y1="67.58" x2="200.41" y2="132.70"
        stroke="rgba(255,55,55,1.00)" stroke-width="0.78" />
  <line id="32" x1="200.41" y1="132.70" x2="202.15" y2="122.85"
        stroke="rgba(255,55,55,1.00)" stroke-width="0.78" />
  <line id="33" x1="202.15" y1="122.85" x2="216.56" y2="41.11"
        stroke="rgba(255,62,62,1.00)" stroke-width="0.75" />
  <line id="34" x1="216.56" y1="41.11" x2="138.57" y2="69.50"
        stroke="rgba(255,62,62,1.00)" stroke-width="0.75" />
  <line id="35" x1="138.57" y1="69.50" x2="202.15" y2="122.85"
        stroke="rgba(255,62,62,1.00)" stroke-width="0.75" />
  <line id="36" x1="202.15" y1="122.85" x2="202.15" y2="112.85"
        stroke="rgba(255,62,62,1.00)" stroke-width="0.75" />
  <line id="37" x1="202.15" y1="112.85" x2="202.15" y2="31.85"
        stroke="rgba(255,69,69,1.00)" stroke-width="0.72" />
  <line id="38" x1="202.15" y1="31.85" x2="132.00" y2="72.35"
        stroke="rgba(255,69,69,1.00)" stroke-width="0.72" />
  <line id="39" x1="132.00" y1="72.35" x2="202.15" y2="112.85"
        stroke="rgba(255,69,69,1.00)" stroke-width="0.72" />
  <line id="40" x1="202.15" y1="112.85" x2="200.41" y2="103.00"
        stroke="rgba(255,69,69,1.00)" stroke-width="0.72" />
  <line id="41" x1="200.41" y1="103.00" x2="186.70" y2="25.20"
        stroke="rgba(255,76,76,1.00)" stroke-width="0.69" />
  <line id="42" x1="186.70" y1="25.20" x2="126.18" y2="75.98"
        stroke="rgba(255,76,76,1.00)" stroke-width="0.69" />
  <line id="43" x1="126.18" y1="75.98" x2="200.41" y2="103.00"
        stroke="rgba(255,76,76,1.00)" stroke-width="0.69" />
  <line id="44" x1="200.41" y1="103.00" x2="196.99" y2="93.60"
        stroke="rgba(255,76,76,1.00)" stroke-width="0.69" />
  <line id="45" x1="196.99" y1="93.60" x2="170.66" y2="21.25"
        stroke="rgba(255,83,83,1.00)" stroke-width="0.67" />
  <line id="46" x1="170.66" y1="21.25" x2="121.16" y2="80.23"
        stroke="rgba(255,83,83,1.00)" stroke-width="0.67" />
  <line id="47" x1="121.16" y1="80.23" x2="196.99" y2="93.60"
        stroke="rgba(255,83,83,1.00)" stroke-width="0.67" />
  <line id="48" x1="196.99" y1="93.60" x2="191.99" y2="84.94"
        stroke="rgba(255,83,83,1.00)" stroke-width="0.67" />
  <line id="49" x1="191.99" y1="84.94" x2="154.49" y2="19.99"
        stroke="rgba(255,89,89,1.00)" stroke-width="0.64" />
  <line id="50" x1="154.49" y1="19.99" x2="116.99" y2="84.94"
        stroke="rgba(255,89,89,1.00)" stroke-width="0.64" />
  <line id="51" x1="116.99" y1="84.94" x2="191.99" y2="84.94"
        stroke="rgba(255,89,89,1.00)" stroke-width="0.64" />
  <line id="52" x1="191.99" y1="84.94" x2="185.57" y2="77.28"
        stroke="rgba(255,89,89,1.00)" stroke-width="0.64" />
  <line id="53" x1="185.57" y1="77.28" x2="138.64" y2="21.36"
        stroke="rgba(255,96,96,1.00)" stroke-width="0.61" />
  <line id="54" x1="138.64" y1="21.36" x2="113.67" y2="89.96"
        stroke="rgba(255,96,96,1.00)" stroke-width="0.61" />
  <line id="55" x1="113.67" y1="89.96" x2="185.57" y2="77.28"
        stroke="rgba(255,96,96,1.00)" stroke-width="0.61" />
  <line id="56" x1="185.57" y1="77.28" x2="177.91" y2="70.86"
        stroke="rgba(255,96,96,1.00)" stroke-width="0.61" />
  <line id="57" x1="177.91" y1="70.86" x2="123.52" y2="25.22"
        stroke="rgba(255,103,103,1.00)" stroke-width="0.58" />
  <line id="58" x1="123.52" y1="25.22" x2="111.19" y2="95.14"
        stroke="rgba(255,103,103,1.00)" stroke-width="0.58" />
  <line id="59" x1="111.19" y1="95.14" x2="177.91" y2="70.86"
        stroke="rgba(255,103,103,1.00)" stroke-width="0.58" />
  <line id="60" x1="177.91" y1="70.86" x2="169.25" y2="65.86"
        stroke="rgba(255,103,103,1.00)" stroke-width="0.58" />
  <line id="61" x1="169.25" y1="65.86" x2="109.49" y2="31.36"
        stroke="rgba(255,110,110,1.00)" stroke-width="0.56" />
  <line id="62" x1="109.49" y1="31.36" x2="109.49" y2="100.36"
        stroke="rgba(255,110,110,1.00)" stroke-width="0.56" />
  <line id="63" x1="109.49" y1="100.36" x2="169.25" y2="65.86"
        stroke="rgba(255,110,110,1.00)" stroke-width="0.56" />
  <line id="64" x1="169.25" y1="65.86" x2="159.85" y2="62.44"
        stroke="rgba(255,110,110,1.00)" stroke-width="0.56" />
  <line id="65" x1="159.85" y1="62.44" x2="96.89" y2="39.52"
        stroke="rgba(255,117,117,1.00)" stroke-width="0.53" />
  <line id="66" x1="96.89" y1="39.52" x2="108.52" y2="105.50"
        stroke="rgba(255,117,117,1.00)" stroke-width="0.53" />
  <line id="67" x1="108.52" y1="105.50" x2="159.85" y2="62.44"
        stroke="rgba(255,117,117,1.00)" stroke-width="0.53" />
  <line id="68" x1="159.85" y1="62.44" x2="150.00" y2="60.70"
        stroke="rgba(255,117,117,1.00)" stroke-width="0.53" />
  <line id="69" x1="150.00" y1="60.70" x2="85.99" y2="49.41"
        stroke="rgba(255,124,124,1.00)" stroke-width="0.50" />
  <line id="70" x1="85.99" y1="49.41" x2="108.22" y2="110.49"
        stroke="rgba(255,124,124,1.00)" stroke-width="0.50" />
  <line id="71" x1="108.22" y1="110.49" x2="150.00" y2="60.70"
        stroke="rgba(255,124,124,1.00)" stroke-width="0.50" />
  <line id="72" x1="150.00" y1="60.70" x2="140.00" y2="60.70"
        stroke="rgba(255,124,124,1.00)" stroke-width="0.50" />
  <line id="73" x1="140.00" y1="60.70" x2="77.00" y2="60.70"
        stroke="rgba(255,131,131,1.00)" stroke-width="0.47" />
  <line id="74" x1="77.00" y1="60.70" x2="108.50" y2="115.26"
        stroke="rgba(255,131,131,1.00)" stroke-width="0.47" />
  <line id="75" x1="108.50" y1="115.26" x2="140.00" y2="60.70"
        stroke="rgba(255,131,131,1.00)" stroke-width="0.47" />
  <line id="76" x1="140.00" y1="60.70" x2="130.15" y2="62.44"
        stroke="rgba(255,131,131,1.00)" stroke-width="0.47" />
  <line id="77" x1="130.15" y1="62.44" x2="70.08" y2="73.03"
        stroke="rgba(255,138,138,1.00)" stroke-width="0.44" />
  <line id="78" x1="70.08" y1="73.03" x2="109.29" y2="119.76"
        stroke="rgba(255,138,138,1.00)" stroke-width="0.44" />
  <line id="79" x1="109.29" y1="119.76" x2="130.15" y2="62.44"
        stroke="rgba(255,138,138,1.00)" stroke-width="0.44" />
  <line id="80" x1="130.15" y1="62.44" x2="120.75" y2="65.86"
        stroke="rgba(255,138,138,1.00)" stroke-width="0.44" />
  <line id="81" x1="120.75" y1="65.86" x2="65.31" y2="86.04"
        stroke="rgba(255,145,145,1.00)" stroke-width="0.42" />
  <line id="82" x1="65.31" y1="86.04" x2="110.51" y2="123.96"
        stroke="rgba(255,145,145,1.00)" stroke-width="0.42" />
  <line id="83" x1="110.51" y1="123.96" x2="120.75" y2="65.86"
        stroke="rgba(255,145,145,1.00)" stroke-width="0.42" />
  <line id="84" x1="120.75" y1="65.86" x2="112.09" y2="70.86"
        stroke="rgba(255,145,145,1.00)" stroke-width="0.42" />
  <line id="85" x1="112.09" y1="70.86" x2="62.73" y2="99.36"
        stroke="rgba(255,152,152,1.00)" stroke-width="0.39" />
  <line id="86" x1="62.73" y1="99.36" x2="112.09" y2="127.86"
        stroke="rgba(255,152,152,1.00)" stroke-width="0.39" />
  <line id="87" x1="112.09" y1="127.86" x2="112.09" y2="70.86"
        stroke="rgba(255,152,152,1.00)" stroke-width="0.39" />
  <line id="88" x1="112.09" y1="70.86" x2="104.43" y2="77.28"
        stroke="rgba(255,152,152,1.00)" stroke-width="0.39" />
  <line id="89" x1="104.43" y1="77.28" x2="62.30" y2="112.64"
        stroke="rgba(255,159,159,1.00)" stroke-width="0.36" />
  <line id="90" x1="62.30" y1="112.64" x2="113.98" y2="131.45"
        stroke="rgba(255,159,159,1.00)" stroke-width="0.36" />
  <line id="91" x1="113.98" y1="131.45" x2="104.43" y2="77.28"
        stroke="rgba(255,159,159,1.00)" stroke-width="0.36" />
  <line id="92" x1="104.43" y1="77.28" x2="98.01" y2="84.94"
        stroke="rgba(255,159,159,1.00)" stroke-width="0.36" />
  <line id="93" x1="98.01" y1="84.94" x2="63.94" y2="125.54"
        stroke="rgba(255,166,166,1.00)" stroke-width="0.33" />
  <line id="94" x1="63.94" y1="125.54" x2="116.13" y2="134.75"
        stroke="rgba(255,166,166,1.00)" stroke-width="0.33" />
  <line id="95" x1="116.13" y1="134.75" x2="98.01" y2="84.94"
        stroke="rgba(255,166,166,1.00)" stroke-width="0.33" />
  <line id="96" x1="98.01" y1="84.94" x2="93.01" y2="93.60"
        stroke="rgba(255,166,166,1.00)" stroke-width="0.33" />
  <line id="97" x1="93.01" y1="93.60" x2="67.51" y2="137.77"
        stroke="rgba(255,172,172,1.00)" stroke-width="0.31" />
  <line id="98" x1="67.51" y1="137.77" x2="118.51" y2="137.77"
        stroke="rgba(255,172,172,1.00)" stroke-width="0.31" />
  <line id="99" x1="118.51" y1="137.77" x2="93.01" y2="93.60"
        stroke="rgba(255,172,172,1.00)" stroke-width="0.31" />
  <line id="100" x1="93.01" y1="93.60" x2="89.59" y2="103.00"
        stroke="rgba(255,172,172,1.00)" stroke-width="0.31" />
  <line id="101" x1="89.59" y1="103.00" x2="72.83" y2="149.05"
        stroke="rgba(255,179,179,1.00)" stroke-width="0.28" />
  <line id="102" x1="72.83" y1="149.05" x2="121.08" y2="140.54"
        stroke="rgba(255,179,179,1.00)" stroke-width="0.28" />
  <line id="103" x1="121.08" y1="140.54" x2="89.59" y2="103.00"
        stroke="rgba(255,179,179,1.00)" stroke-width="0.28" />
  <line id="104" x1="89.59" y1="103.00" x2="87.85" y2="112.85"
        stroke="rgba(255,179,179,1.00)" stroke-width="0.28" />
  <line id="105" x1="87.85" y1="112.85" x2="79.69" y2="159.14"
        stroke="rgba(255,186,186,1.00)" stroke-width="0.25" />
  <line id="106" x1="79.69" y1="159.14" x2="123.85" y2="143.06"
        stroke="rgba(255,186,186,1.00)" stroke-width="0.25" />
  <line id="107" x1="123.85" y1="143.06" x2="87.85" y2="112.85"
        stroke="rgba(255,186,186,1.00)" stroke-width="0.25" />
  <line id="108" x1="87.85" y1="112.85" x2="87.85" y2="122.85"
        stroke="rgba(255,186,186,1.00)" stroke-width="0.25" />
  <line id="109" x1="87.85" y1="122.85" x2="87.85" y2="167.85"
        stroke="rgba(255,193,193,1.00)" stroke-width="0.22" />
  <line id="110" x1="87.85" y1="167.85" x2="126.82" y2="145.35"
        stroke="rgba(255,193,193,1.00)" stroke-width="0.22" />
  <line id="111" x1="126.82" y1="145.35" x2="87.85" y2="122.85"
        stroke="rgba(255,193,193,1.00)" stroke-width="0.22" />
  <line id="112" x1="87.85" y1="122.85" x2="89.59" y2="132.70"
        stroke="rgba(255,193,193,1.00)" stroke-width="0.22" />
  <line id="113" x1="89.59" y1="132.70" x2="97.05" y2="175.04"
        stroke="rgba(255,200,200,1.00)" stroke-width="0.19" />
  <line id="114" x1="97.05" y1="175.04" x2="129.99" y2="147.40"
        stroke="rgba(255,200,200,1.00)" stroke-width="0.19" />
  <line id="115" x1="129.99" y1="147.40" x2="89.59" y2="132.70"
        stroke="rgba(255,200,200,1.00)" stroke-width="0.19" />
  <line id="116" x1="89.59" y1="132.70" x2="93.01" y2="142.09"
        stroke="rgba(255,200,200,1.00)" stroke-width="0.19" />
  <line id="117" x1="93.01" y1="142.09" x2="107.03" y2="180.62"
        stroke="rgba(255,207,207,1.00)" stroke-width="0.17" />
  <line id="118" x1="107.03" y1="180.62" x2="133.38" y2="149.21"
        stroke="rgba(255,207,207,1.00)" stroke-width="0.17" />
  <line id="119" x1="133.38" y1="149.21" x2="93.01" y2="142.09"
        stroke="rgba(255,207,207,1.00)" stroke-width="0.17" />
  <line id="120" x1="93.01" y1="142.09" x2="98.01" y2="150.75"
        stroke="rgba(255,207,207,1.00)" stroke-width="0.17" />
  <line id="121" x1="98.01" y1="150.75" x2="117.51" y2="184.53"
        stroke="rgba(255,214,214,1.00)" stroke-width="0.14" />
  <line id="122" x1="117.51" y1="184.53" x2="137.01" y2="150.75"
        stroke="rgba(255,214,214,1.00)" stroke-width="0.14" />
  <line id="123" x1="137.01" y1="150.75" x2="98.01" y2="150.75"
        stroke="rgba(255,214,214,1.00)" stroke-width="0.14" />
  <line id="124" x1="98.01" y1="150.75" x2="104.43" y2="158.42"
        stroke="rgba(255,214,214,1.00)" stroke-width="0.14" />
  <line id="125" x1="104.43" y1="158.42" x2="128.22" y2="186.76"
        stroke="rgba(255,221,221,1.00)" stroke-width="0.11" />
  <line id="126" x1="128.22" y1="186.76" x2="140.87" y2="151.99"
        stroke="rgba(255,221,221,1.00)" stroke-width="0.11" />
  <line id="127" x1="140.87" y1="151.99" x2="104.43" y2="158.42"
        stroke="rgba(255,221,221,1.00)" stroke-width="0.11" />
  <line id="128" x1="104.43" y1="158.42" x2="112.09" y2="164.84"
        stroke="rgba(255,221,221,1.00)" stroke-width="0.11" />
  <line id="129" x1="112.09" y1="164.84" x2="138.91" y2="187.34"
        stroke="rgba(255,228,228,1.00)" stroke-width="0.08" />
  <line id="130" x1="138.91" y1="187.34" x2="144.98" y2="152.87"
        stroke="rgba(255,228,228,1.00)" stroke-width="0.08" />
  <line id="131" x1="144.98" y1="152.87" x2="112.09" y2="164.84"
        stroke="rgba(255,228,228,1.00)" stroke-width="0.08" />
  <line id="132" x1="112.09" y1="164.84" x2="120.75" y2="169.84"
        stroke="rgba(255,228,228,1.00)" stroke-width="0.08" />
  <line id="133" x1="120.75" y1="169.84" x2="149.33" y2="186.34"
        stroke="rgba(255,235,235,1.00)" stroke-width="0.06" />
  <line id="134" x1="149.33" y1="186.34" x2="149.33" y2="153.34"
        stroke="rgba(255,235,235,1.00)" stroke-width="0.06" />
  <line id="135" x1="149.33" y1="153.34" x2="120.75" y2="169.84"
        stroke="rgba(255,235,235,1.00)" stroke-width="0.06" />
  <line id="136" x1="120.75" y1="169.84" x2="130.15" y2="173.26"
        stroke="rgba(255,235,235,1.00)" stroke-width="0.06" />
  <line id="137" x1="130.15" y1="173.26" x2="159.28" y2="183.87"
        stroke="rgba(255,242,242,1.00)" stroke-width="0.03" />
  <line id="138" x1="159.28" y1="183.87" x2="153.90" y2="153.34"
        stroke="rgba(255,242,242,1.00)" stroke-width="0.03" />
  <line id="139" x1="153.90" y1="153.34" x2="130.15" y2="173.26"
        stroke="rgba(255,242,242,1.00)" stroke-width="0.03" />
  <line id="140" x1="130.15" y1="173.26" x2="140.00" y2="175.00"
        stroke="rgba(255,242,242,1.00)" stroke-width="0.03" />
  <line id="141" x1="140.00" y1="175.00" x2="168.56" y2="180.04"
        stroke="rgba(255,249,249,1.00)" stroke-width="0.00" />
  <line id="142" x1="168.56" y1="180.04" x2="158.64" y2="152.78"
        stroke="rgba(255,249,249,1.00)" stroke-width="0.00" />
  <line id="143" x1="158.64" y1="152.78" x2="140.00" y2="175.00"
        stroke="rgba(255,249,249,1.00)" stroke-width="0.00" />
  <line id="144" x1="140.00" y1="175.00" x2="150.00" y2="175.00"
        stroke="rgba(255,249,249,1.00)" stroke-width="0.00" />
</svg>
